<?xml version="1.0" encoding="UTF-8" standalone="no"?>
<svg
   xmlns:dc="http://purl.org/dc/elements/1.1/"
   xmlns:cc="http://creativecommons.org/ns#"
   xmlns:rdf="http://www.w3.org/1999/02/22-rdf-syntax-ns#"
   xmlns:svg="http://www.w3.org/2000/svg"
   xmlns="http://www.w3.org/2000/svg"
   xmlns:sodipodi="http://sodipodi.sourceforge.net/DTD/sodipodi-0.dtd"
   xmlns:inkscape="http://www.inkscape.org/namespaces/inkscape"
   inkscape:version="1.0.1 (3bc2e813f5, 2020-09-07)"
   inkscape:export-ydpi="600.12775"
   inkscape:export-xdpi="600.12775"
   inkscape:export-filename="C:\Users\teodo\Pulpit\Inne\Kalendarzyk 2021\Projekty kart\icons\zodiac\01_koziorozec.png"
   sodipodi:docname="01_koziorozec.svg"
   id="svg6"
   version="1.1"
   viewBox="0 0 8425.4127 11940.621"
   height="191.99767pt"
   width="200.75064pt">
  <metadata
     id="metadata12">
    <rdf:RDF>
      <cc:Work
         rdf:about="">
        <dc:format>image/svg+xml</dc:format>
        <dc:type
           rdf:resource="http://purl.org/dc/dcmitype/StillImage" />
        <dc:title></dc:title>
      </cc:Work>
    </rdf:RDF>
  </metadata>
  <defs
     id="defs10" />
  <sodipodi:namedview
     inkscape:current-layer="svg6"
     inkscape:window-maximized="1"
     inkscape:window-y="-9"
     inkscape:window-x="-9"
     inkscape:cy="128.16381"
     inkscape:cx="133.83373"
     inkscape:zoom="4.619774"
     showgrid="false"
     id="namedview8"
     inkscape:window-height="1361"
     inkscape:window-width="2560"
     inkscape:pageshadow="2"
     inkscape:pageopacity="0"
     guidetolerance="10"
     gridtolerance="10"
     objecttolerance="10"
     borderopacity="1"
     bordercolor="#666666"
     pagecolor="#ffffff"
     inkscape:document-rotation="0" />
  <g
     id="g4"
     transform="matrix(4.75426,0,0,4.752845,-14806.822,-20927.826)"
     style="stroke:#000000;stroke-width:49.0619;stroke-miterlimit:4;stroke-dasharray:none;stroke-opacity:1">
    <path
       id="path2"
       d="m 3212,5895 v -70 c 0,-131 -23,-314 -68,-552 -46,-238 -88,-394 -127,-468 -55,-105 -141,-158 -259,-158 h -38 v -165 h 150 c 141,0 238,55 292,165 64,133 122,353 175,661 76,-340 202,-615 380,-826 l 265,-51 c 65,147 119,368 162,663 l 37,245 c 12,86 20,147 24,183 16,147 37,258 61,333 129,-247 308,-371 536,-371 137,0 254,48 350,142 97,94 145,209 145,344 0,144 -49,268 -146,368 -98,101 -217,151 -357,151 -191,0 -358,-74 -501,-222 -102,268 -192,439 -270,513 -78,74 -206,111 -384,111 h -182 v -167 h 85 c 172,0 290,-35 355,-105 64,-69 147,-251 247,-546 -45,-79 -75,-146 -89,-199 -14,-53 -32,-169 -54,-349 l -51,-384 c -33,-253 -72,-427 -117,-522 -114,135 -213,318 -296,549 -84,231 -125,437 -125,619 v 108 z m 1126,202 c 145,161 293,242 441,242 100,0 184,-35 251,-105 67,-69 100,-157 100,-261 0,-93 -32,-173 -96,-239 -63,-65 -141,-98 -232,-98 -197,0 -352,154 -464,461 z"
       style="stroke:#000000;stroke-width:49.0619;stroke-miterlimit:4;stroke-dasharray:none;stroke-opacity:1" />
  </g>
</svg>
