<?xml version="1.0" encoding="UTF-8" standalone="no"?>
<svg
   xmlns:dc="http://purl.org/dc/elements/1.1/"
   xmlns:cc="http://creativecommons.org/ns#"
   xmlns:rdf="http://www.w3.org/1999/02/22-rdf-syntax-ns#"
   xmlns:svg="http://www.w3.org/2000/svg"
   xmlns="http://www.w3.org/2000/svg"
   xmlns:sodipodi="http://sodipodi.sourceforge.net/DTD/sodipodi-0.dtd"
   xmlns:inkscape="http://www.inkscape.org/namespaces/inkscape"
   inkscape:version="1.0.1 (3bc2e813f5, 2020-09-07)"
   inkscape:export-ydpi="300.11017"
   inkscape:export-xdpi="300.11017"
   inkscape:export-filename="C:\Users\teodo\Pulpit\Inne\Kalendarzyk 2022\card_creator_front\icons\white\zodiac_margin\02_wodnik.png"
   version="1.1"
   sodipodi:docname="02_wodnik.svg"
   sodipodi:version="0.34"
   id="svg668"
   viewBox="0 0 8417.1613 12040.826"
   style="fill-rule:evenodd;image-rendering:optimizeQuality;shape-rendering:geometricPrecision;text-rendering:geometricPrecision"
   height="193.6089pt"
   width="285.05142pt"
   xml:space="preserve"><metadata
     id="metadata8"><rdf:RDF><cc:Work
         rdf:about=""><dc:format>image/svg+xml</dc:format><dc:type
           rdf:resource="http://purl.org/dc/dcmitype/StillImage" /><dc:title></dc:title></cc:Work></rdf:RDF></metadata><sodipodi:namedview
     inkscape:current-layer="svg668"
     inkscape:window-maximized="1"
     inkscape:window-y="-9"
     inkscape:window-x="-9"
     inkscape:window-height="1361"
     inkscape:window-width="2560"
     inkscape:cy="163.99616"
     inkscape:cx="180.38896"
     inkscape:zoom="2.6536737"
     showgrid="false"
     inkscape:document-rotation="0"
     id="base" /><defs
     id="defs669"><style
       id="style670"
       type="text/css"><![CDATA[
    .fil0 {fill:#000000}
   ]]></style></defs><g
     transform="matrix(6.99342,0,0,6.984468,-23433.126,-32296.447)"
     id="Layer 1"
     style="stroke:#000000;stroke-width:33.3696;stroke-miterlimit:4;stroke-dasharray:none;stroke-opacity:1"><path
       id="path672"
       d="m 2720,6184 753,-497 165,385 583,-385 163,385 584,-385 241,567 -156,69 -161,-385 -586,385 -163,-385 -581,385 -164,-385 -586,385 z m 1,-1037 753,-498 165,385 584,-385 163,385 583,-385 241,567 -156,69 -161,-385 -587,385 -163,-385 -581,385 -162,-385 -586,385 z"
       class="fil0"
       style="stroke:#000000;stroke-width:33.3696;stroke-miterlimit:4;stroke-dasharray:none;stroke-opacity:1" /></g></svg>
