<?xml version="1.0" encoding="UTF-8" standalone="no"?>
<svg
   xmlns:dc="http://purl.org/dc/elements/1.1/"
   xmlns:cc="http://creativecommons.org/ns#"
   xmlns:rdf="http://www.w3.org/1999/02/22-rdf-syntax-ns#"
   xmlns:svg="http://www.w3.org/2000/svg"
   xmlns="http://www.w3.org/2000/svg"
   xmlns:sodipodi="http://sodipodi.sourceforge.net/DTD/sodipodi-0.dtd"
   xmlns:inkscape="http://www.inkscape.org/namespaces/inkscape"
   inkscape:version="1.0.1 (3bc2e813f5, 2020-09-07)"
   inkscape:export-ydpi="600"
   inkscape:export-xdpi="600"
   inkscape:export-filename="C:\Users\teodo\Pulpit\Inne\Kalendarzyk 2021\card_projects\icons\zodiac\03_ryby.png"
   sodipodi:docname="03_ryby.svg"
   version="1.1"
   id="svg674"
   viewBox="0 0 8744.1932 11925.223"
   style="fill-rule:evenodd;image-rendering:optimizeQuality;shape-rendering:geometricPrecision;text-rendering:geometricPrecision"
   height="191.75008pt"
   width="160.2256pt"
   xml:space="preserve"><metadata
   id="metadata9"><rdf:RDF><cc:Work
       rdf:about=""><dc:format>image/svg+xml</dc:format><dc:type
         rdf:resource="http://purl.org/dc/dcmitype/StillImage" /><dc:title></dc:title></cc:Work></rdf:RDF></metadata><sodipodi:namedview
   inkscape:current-layer="svg674"
   inkscape:window-maximized="1"
   inkscape:window-y="-9"
   inkscape:window-x="-9"
   inkscape:cy="127.83341"
   inkscape:cx="106.81704"
   inkscape:zoom="4.619774"
   showgrid="false"
   id="namedview7"
   inkscape:window-height="1361"
   inkscape:window-width="2560"
   inkscape:pageshadow="2"
   inkscape:pageopacity="0"
   guidetolerance="10"
   gridtolerance="10"
   objecttolerance="10"
   borderopacity="1"
   bordercolor="#666666"
   pagecolor="#ffffff"
   inkscape:document-rotation="0" /> <defs
   id="defs675"><style
     id="style676"
     type="text/css"><![CDATA[
    .fil0 {fill:#000000}
   ]]></style></defs><g
   transform="matrix(5.548888,0,0,5.549122,-15398.652,-24477.097)"
   id="Base"
   style="fill:#000000;fill-opacity:1;stroke:#000000;stroke-width:42.0288;stroke-miterlimit:4;stroke-dasharray:none;stroke-opacity:1"><path
     id="path678"
     d="m 3362,5518 c 0,165 -39,340 -115,524 -77,184 -179,350 -308,497 h -219 c 295,-311 442,-651 442,-1021 h -427 v -150 h 427 c -18,-322 -165,-634 -442,-936 h 207 c 254,271 399,583 435,936 h 414 c 37,-353 182,-665 435,-936 h 207 c -277,302 -424,614 -442,936 h 427 v 150 h -427 c 0,370 147,710 442,1021 h -218 c -130,-147 -232,-313 -309,-497 -76,-184 -115,-359 -115,-524 z"
     class="fil0"
     style="fill:#000000;fill-opacity:1;stroke:#000000;stroke-width:42.0288;stroke-miterlimit:4;stroke-dasharray:none;stroke-opacity:1" /></g></svg>
