<?xml version="1.0" encoding="UTF-8" standalone="no"?>
<svg
   xmlns:dc="http://purl.org/dc/elements/1.1/"
   xmlns:cc="http://creativecommons.org/ns#"
   xmlns:rdf="http://www.w3.org/1999/02/22-rdf-syntax-ns#"
   xmlns:svg="http://www.w3.org/2000/svg"
   xmlns="http://www.w3.org/2000/svg"
   xmlns:sodipodi="http://sodipodi.sourceforge.net/DTD/sodipodi-0.dtd"
   xmlns:inkscape="http://www.inkscape.org/namespaces/inkscape"
   inkscape:version="1.0.1 (3bc2e813f5, 2020-09-07)"
   inkscape:export-ydpi="300.00388"
   inkscape:export-xdpi="300.00388"
   inkscape:export-filename="C:\Users\teodo\Pulpit\Inne\Kalendarzyk 2022\card_creator_front\icons\white\zodiac_margin\04_baran.png"
   version="1.1"
   sodipodi:docname="04_baran.svg"
   sodipodi:version="0.34"
   id="svg602"
   viewBox="0 0 8424.2787 11925.687"
   style="fill-rule:evenodd;image-rendering:optimizeQuality;shape-rendering:geometricPrecision;text-rendering:geometricPrecision"
   height="191.75754pt"
   width="201.74252pt"
   xml:space="preserve"><metadata
     id="metadata8"><rdf:RDF><cc:Work
         rdf:about=""><dc:format>image/svg+xml</dc:format><dc:type
           rdf:resource="http://purl.org/dc/dcmitype/StillImage" /><dc:title></dc:title></cc:Work></rdf:RDF></metadata><sodipodi:namedview
     inkscape:current-layer="svg602"
     inkscape:window-maximized="1"
     inkscape:window-y="-9"
     inkscape:window-x="-9"
     inkscape:window-height="1361"
     inkscape:window-width="2560"
     inkscape:cy="155.18603"
     inkscape:cx="88.930173"
     inkscape:zoom="3.7528613"
     showgrid="false"
     inkscape:document-rotation="0"
     id="base"
     fit-margin-top="0"
     fit-margin-left="0"
     fit-margin-right="0"
     fit-margin-bottom="0" /><defs
     id="defs603"><style
       id="style604"
       type="text/css"><![CDATA[
    .fil0 {fill:#000000}
   ]]></style></defs><g
     transform="matrix(4.487579,0,0,4.505588,-8745.652,-12742.105)"
     id="Layer 1"
     style="stroke:#000000;stroke-width:51.8657;stroke-miterlimit:4;stroke-dasharray:none;stroke-opacity:1"><path
       id="path606"
       d="m 2796,5449 v -134 c 0,-257 -26,-543 -77,-857 -52,-315 -115,-572 -189,-771 -162,-432 -336,-648 -523,-648 -83,0 -151,36 -204,109 -52,73 -78,167 -78,284 0,154 49,313 149,477 h -203 c -98,-177 -147,-343 -147,-497 0,-160 46,-292 138,-398 92,-106 208,-160 347,-160 225,0 415,151 573,454 157,301 256,706 297,1215 h 34 c 34,-498 132,-901 292,-1208 160,-307 354,-461 579,-461 139,0 254,53 346,158 92,104 138,236 138,396 0,155 -49,322 -146,501 h -204 c 99,-177 149,-339 149,-488 0,-119 -26,-215 -77,-289 -52,-73 -120,-110 -205,-110 -181,0 -350,202 -506,604 -80,205 -146,471 -201,798 -54,326 -81,626 -81,899 v 126 z"
       class="fil0"
       style="stroke:#000000;stroke-width:51.8657;stroke-miterlimit:4;stroke-dasharray:none;stroke-opacity:1" /></g></svg>
