<?xml version="1.0" encoding="UTF-8" standalone="no"?>
<svg
   xmlns:dc="http://purl.org/dc/elements/1.1/"
   xmlns:cc="http://creativecommons.org/ns#"
   xmlns:rdf="http://www.w3.org/1999/02/22-rdf-syntax-ns#"
   xmlns:svg="http://www.w3.org/2000/svg"
   xmlns="http://www.w3.org/2000/svg"
   xmlns:sodipodi="http://sodipodi.sourceforge.net/DTD/sodipodi-0.dtd"
   xmlns:inkscape="http://www.inkscape.org/namespaces/inkscape"
   inkscape:version="1.0.1 (3bc2e813f5, 2020-09-07)"
   inkscape:export-ydpi="600"
   inkscape:export-xdpi="600"
   inkscape:export-filename="C:\Users\teodo\Pulpit\Inne\Kalendarzyk 2021\card_projects\icons\zodiac\05_byk.png"
   version="1.1"
   sodipodi:docname="05_byk.svg"
   sodipodi:version="0.34"
   id="svg614"
   viewBox="0 0 8440.4743 11924.915"
   style="fill-rule:evenodd;image-rendering:optimizeQuality;shape-rendering:geometricPrecision;text-rendering:geometricPrecision"
   height="191.74513pt"
   width="183.75488pt"
   xml:space="preserve"><metadata
     id="metadata8"><rdf:RDF><cc:Work
         rdf:about=""><dc:format>image/svg+xml</dc:format><dc:type
           rdf:resource="http://purl.org/dc/dcmitype/StillImage" /><dc:title></dc:title></cc:Work></rdf:RDF></metadata><sodipodi:namedview
     inkscape:current-layer="svg614"
     inkscape:window-maximized="1"
     inkscape:window-y="-9"
     inkscape:window-x="-9"
     inkscape:window-height="1361"
     inkscape:window-width="2560"
     inkscape:cy="143.61156"
     inkscape:cx="99.135174"
     inkscape:zoom="3.7528613"
     showgrid="false"
     inkscape:document-rotation="0"
     id="base" /><defs
     id="defs615"><style
       id="style616"
       type="text/css"><![CDATA[
    .fil0 {fill:#000000}
   ]]></style></defs><g
     transform="matrix(4.552447,0,0,4.540583,-8284.4018,-13083.018)"
     id="Layer 1"
     style="stroke:#000000;stroke-width:51.29605448;stroke-miterlimit:4;stroke-dasharray:none;stroke-opacity:1"><path
       id="path618"
       d="m 2373,3861 c -89,-35 -160,-80 -216,-134 -55,-54 -116,-141 -183,-262 l -80,-144 c -98,-176 -210,-264 -334,-264 h -36 v -150 h 99 c 176,0 336,124 479,371 l 109,192 c 74,126 150,214 230,264 80,51 184,76 313,76 129,0 233,-25 313,-76 80,-50 156,-138 229,-264 l 111,-192 c 142,-247 302,-371 477,-371 h 99 v 150 h -35 c -125,0 -237,88 -335,264 l -80,144 c -67,121 -128,208 -183,262 -56,54 -128,99 -216,134 154,85 272,195 356,328 84,133 125,280 125,438 0,230 -85,430 -256,600 -172,170 -373,255 -605,255 -232,0 -433,-85 -605,-255 -172,-170 -258,-370 -258,-600 0,-158 42,-305 126,-438 84,-133 202,-243 356,-328 z m 381,1420 c 182,0 337,-63 467,-191 129,-126 194,-279 194,-458 0,-182 -65,-337 -193,-464 -128,-128 -284,-191 -468,-191 -183,0 -339,63 -469,191 -128,127 -193,282 -193,464 0,179 65,332 194,458 129,128 285,191 468,191 z"
       class="fil0"
       style="stroke:#000000;stroke-width:51.29605448;stroke-miterlimit:4;stroke-dasharray:none;stroke-opacity:1" /></g></svg>
