<?xml version="1.0" encoding="UTF-8" standalone="no"?>
<svg
   xmlns:dc="http://purl.org/dc/elements/1.1/"
   xmlns:cc="http://creativecommons.org/ns#"
   xmlns:rdf="http://www.w3.org/1999/02/22-rdf-syntax-ns#"
   xmlns:svg="http://www.w3.org/2000/svg"
   xmlns="http://www.w3.org/2000/svg"
   xmlns:sodipodi="http://sodipodi.sourceforge.net/DTD/sodipodi-0.dtd"
   xmlns:inkscape="http://www.inkscape.org/namespaces/inkscape"
   inkscape:version="1.0.1 (3bc2e813f5, 2020-09-07)"
   inkscape:export-ydpi="600"
   inkscape:export-xdpi="600"
   inkscape:export-filename="C:\Users\teodo\Pulpit\Inne\Kalendarzyk 2021\card_projects\icons\zodiac\06_bliznieta.png"
   version="1.1"
   sodipodi:docname="06_bliznieta.svg"
   sodipodi:version="0.34"
   id="svg620"
   viewBox="0 0 8268 11692"
   style="shape-rendering:geometricPrecision; text-rendering:geometricPrecision; image-rendering:optimizeQuality; fill-rule:evenodd"
   height="188pt"
   width="183pt"
   xml:space="preserve"><metadata
     id="metadata8"><rdf:RDF><cc:Work
         rdf:about=""><dc:format>image/svg+xml</dc:format><dc:type
           rdf:resource="http://purl.org/dc/dcmitype/StillImage" /><dc:title></dc:title></cc:Work></rdf:RDF></metadata><sodipodi:namedview
     inkscape:current-layer="svg620"
     inkscape:window-maximized="1"
     inkscape:window-y="-9"
     inkscape:window-x="-9"
     inkscape:window-height="1361"
     inkscape:window-width="2560"
     inkscape:cy="125.33333"
     inkscape:cx="122"
     inkscape:zoom="4.619774"
     showgrid="false"
     inkscape:document-rotation="0"
     id="base" /><defs
     id="defs621"><style
       id="style622"
       type="text/css"><![CDATA[
    .fil0 {fill:#000000}
   ]]></style></defs><g
     transform="matrix(5.152124,0,0,5.157475,-9408.358,-14342.93)"
     id="Layer 1"
     style="stroke:#000000;stroke-opacity:1;stroke-width:45.2429065;stroke-miterlimit:4;stroke-dasharray:none"><path
       id="path624"
       d="m 1524,5048 v -167 c 186,-49 359,-84 518,-103 V 3048 c -172,-16 -345,-49 -518,-99 v -168 c 300,83 668,125 1104,125 437,0 805,-42 1105,-125 v 168 c -174,50 -347,83 -519,99 v 1730 c 159,19 332,54 519,103 v 167 c -342,-90 -710,-134 -1105,-134 -395,0 -763,44 -1104,134 z m 719,-282 c 115,-13 243,-19 385,-19 142,0 270,6 385,19 V 3062 c -104,7 -232,11 -385,11 -154,0 -282,-4 -385,-11 z"
       class="fil0"
       style="stroke:#000000;stroke-opacity:1;stroke-width:45.2429065;stroke-miterlimit:4;stroke-dasharray:none" /></g></svg>
