<?xml version="1.0" encoding="UTF-8" standalone="no"?>
<svg
   xmlns:dc="http://purl.org/dc/elements/1.1/"
   xmlns:cc="http://creativecommons.org/ns#"
   xmlns:rdf="http://www.w3.org/1999/02/22-rdf-syntax-ns#"
   xmlns:svg="http://www.w3.org/2000/svg"
   xmlns="http://www.w3.org/2000/svg"
   xmlns:sodipodi="http://sodipodi.sourceforge.net/DTD/sodipodi-0.dtd"
   xmlns:inkscape="http://www.inkscape.org/namespaces/inkscape"
   inkscape:version="1.0.1 (3bc2e813f5, 2020-09-07)"
   inkscape:export-ydpi="600"
   inkscape:export-xdpi="600"
   inkscape:export-filename="C:\Users\teodo\Pulpit\Inne\Kalendarzyk 2021\card_projects\icons\zodiac\08_lew.png"
   sodipodi:docname="08_lew.svg"
   id="svg4"
   version="1.1"
   height="400"
   width="300">
  <metadata
     id="metadata10">
    <rdf:RDF>
      <cc:Work
         rdf:about="">
        <dc:format>image/svg+xml</dc:format>
        <dc:type
           rdf:resource="http://purl.org/dc/dcmitype/StillImage" />
        <dc:title></dc:title>
      </cc:Work>
    </rdf:RDF>
  </metadata>
  <defs
     id="defs8" />
  <sodipodi:namedview
     inkscape:current-layer="svg4"
     inkscape:window-maximized="1"
     inkscape:window-y="-9"
     inkscape:window-x="-9"
     inkscape:cy="231.04918"
     inkscape:cx="71.345185"
     inkscape:zoom="2.0471154"
     showgrid="false"
     id="namedview6"
     inkscape:window-height="1361"
     inkscape:window-width="2560"
     inkscape:pageshadow="2"
     inkscape:pageopacity="0"
     guidetolerance="10"
     gridtolerance="10"
     objecttolerance="10"
     borderopacity="1"
     bordercolor="#666666"
     pagecolor="#ffffff"
     inkscape:document-rotation="0" />
  <path
     id="path2"
     stroke-width="25"
     stroke="#000"
     fill="none"
     d="m286.84 347.95c-19.265 18.659-50.322 33.658-75.82 18.355-24.527-15.806-26.088-50.149-16.57-75.059 14.499-37.96 35.018-73.374 48.909-111.63 12.955-32.776 24.167-71.502 7.0641-104.95-17.637-38.252-66.447-57.43-105.39-41.408-37.572 13.606-60.681 56.572-51.492 95.419 8.6833 39.391 43.822 69.649 43.163 111.63 0.15092 34.17-33.64 62.825-67.321 57.338-34.413-3.6231-59.55-40.741-50.47-74.039 6.9735-33.23 45.337-54.717 77.271-43.005 23.609 7.5743 40.445 30.88 40.491 55.658"
     style="stroke:#000000;stroke-opacity:1;stroke-width:30;stroke-miterlimit:4;stroke-dasharray:none" />
</svg>
