<?xml version="1.0" encoding="UTF-8" standalone="no"?>
<svg
   xmlns:dc="http://purl.org/dc/elements/1.1/"
   xmlns:cc="http://creativecommons.org/ns#"
   xmlns:rdf="http://www.w3.org/1999/02/22-rdf-syntax-ns#"
   xmlns:svg="http://www.w3.org/2000/svg"
   xmlns="http://www.w3.org/2000/svg"
   xmlns:sodipodi="http://sodipodi.sourceforge.net/DTD/sodipodi-0.dtd"
   xmlns:inkscape="http://www.inkscape.org/namespaces/inkscape"
   inkscape:version="1.0.1 (3bc2e813f5, 2020-09-07)"
   inkscape:export-ydpi="300.09753"
   inkscape:export-xdpi="300.09753"
   inkscape:export-filename="C:\Users\teodo\Pulpit\Inne\Kalendarzyk 2022\card_creator_front\icons\white\zodiac_margin\09_panna.png"
   version="1.1"
   sodipodi:docname="09_panna.svg"
   sodipodi:version="0.34"
   id="svg638"
   viewBox="0 0 8555.7401 11936.887"
   style="fill-rule:evenodd;image-rendering:optimizeQuality;shape-rendering:geometricPrecision;text-rendering:geometricPrecision"
   height="191.93762pt"
   width="160.39426pt"
   xml:space="preserve"><metadata
     id="metadata8"><rdf:RDF><cc:Work
         rdf:about=""><dc:format>image/svg+xml</dc:format><dc:type
           rdf:resource="http://purl.org/dc/dcmitype/StillImage" /><dc:title></dc:title></cc:Work></rdf:RDF></metadata><sodipodi:namedview
     inkscape:current-layer="svg638"
     inkscape:window-maximized="1"
     inkscape:window-y="-9"
     inkscape:window-x="-9"
     inkscape:window-height="1361"
     inkscape:window-width="2560"
     inkscape:cy="121.62618"
     inkscape:cx="159.09551"
     inkscape:zoom="2.6536737"
     showgrid="false"
     inkscape:document-rotation="0"
     id="base" /><defs
     id="defs639"><style
       id="style640"
       type="text/css"><![CDATA[
    .fil0 {fill:#000000}
   ]]></style></defs><g
     transform="matrix(4.538455,0,0,4.531784,-12811.654,-20015.419)"
     id="Layer 1"
     style="stroke:#000000;stroke-width:51.4249;stroke-miterlimit:4;stroke-dasharray:none;stroke-opacity:1"><path
       id="path642"
       d="M 3086,5231 V 6489 H 2885 V 5032 c 0,-202 -55,-386 -165,-550 h 212 c 75,103 126,236 154,397 68,-167 147,-299 236,-397 l 197,-37 c 90,116 147,270 171,462 46,-145 128,-287 245,-425 l 194,-37 c 109,151 163,318 163,501 v 382 c 54,-153 112,-274 172,-360 l 166,-61 c 143,221 214,454 214,698 0,194 -43,375 -128,545 -85,170 -214,328 -384,475 16,118 85,251 207,400 h -236 c -57,-72 -108,-168 -152,-287 -125,71 -279,121 -461,150 v -172 c 172,-35 312,-86 422,-151 -14,-87 -21,-174 -21,-262 V 5083 c 0,-199 -28,-349 -86,-451 -142,153 -247,369 -315,646 V 6489 H 3488 V 5151 c 0,-249 -30,-422 -88,-519 -139,162 -243,361 -314,599 z m 1206,1206 c 118,-120 205,-248 264,-385 58,-137 87,-283 87,-436 0,-161 -35,-317 -105,-468 -100,123 -181,287 -246,492 z"
       class="fil0"
       style="stroke:#000000;stroke-width:51.4249;stroke-miterlimit:4;stroke-dasharray:none;stroke-opacity:1" /></g></svg>
