<?xml version="1.0" encoding="UTF-8" standalone="no"?>
<svg
   xmlns:dc="http://purl.org/dc/elements/1.1/"
   xmlns:cc="http://creativecommons.org/ns#"
   xmlns:rdf="http://www.w3.org/1999/02/22-rdf-syntax-ns#"
   xmlns:svg="http://www.w3.org/2000/svg"
   xmlns="http://www.w3.org/2000/svg"
   xmlns:sodipodi="http://sodipodi.sourceforge.net/DTD/sodipodi-0.dtd"
   xmlns:inkscape="http://www.inkscape.org/namespaces/inkscape"
   inkscape:version="1.0.1 (3bc2e813f5, 2020-09-07)"
   inkscape:export-ydpi="600"
   inkscape:export-xdpi="600"
   inkscape:export-filename="C:\Users\teodo\Pulpit\Inne\Kalendarzyk 2021\card_projects\icons\zodiac\10_waga.png"
   version="1.1"
   sodipodi:docname="10_waga.svg"
   sodipodi:version="0.34"
   id="svg644"
   viewBox="0 0 8405.9099 11925.034"
   style="fill-rule:evenodd;image-rendering:optimizeQuality;shape-rendering:geometricPrecision;text-rendering:geometricPrecision"
   height="191.74704pt"
   width="228.75299pt"
   xml:space="preserve"><metadata
     id="metadata8"><rdf:RDF><cc:Work
         rdf:about=""><dc:format>image/svg+xml</dc:format><dc:type
           rdf:resource="http://purl.org/dc/dcmitype/StillImage" /><dc:title></dc:title></cc:Work></rdf:RDF></metadata><sodipodi:namedview
     inkscape:current-layer="svg644"
     inkscape:window-maximized="1"
     inkscape:window-y="-9"
     inkscape:window-x="-9"
     inkscape:window-height="1361"
     inkscape:window-width="2560"
     inkscape:cy="122.88996"
     inkscape:cx="140.77609"
     inkscape:zoom="3.2666736"
     showgrid="false"
     inkscape:document-rotation="0"
     id="base" /><defs
     id="defs645"><style
       id="style646"
       type="text/css"><![CDATA[
    .fil0 {fill:#000000}
   ]]></style></defs><g
     transform="matrix(6.484284,0,0,6.473976,-20383.093,-28899.844)"
     id="Layer 1"
     style="stroke:#000000;stroke-width:35.9953;stroke-miterlimit:4;stroke-dasharray:none;stroke-opacity:1"><path
       id="path648"
       d="m 2720,6288 v -200 h 2158 v 200 z m 853,-789 v 187 h -853 v -201 h 598 c -109,-111 -163,-236 -163,-374 0,-172 64,-319 191,-443 127,-124 278,-186 454,-186 175,0 326,62 453,186 128,124 191,271 191,443 0,138 -54,263 -163,374 h 597 v 201 h -853 v -187 c 145,-94 218,-220 218,-378 0,-120 -44,-222 -131,-308 -88,-87 -192,-130 -312,-130 -122,0 -226,43 -313,130 -87,86 -131,188 -131,308 0,158 72,284 217,378 z"
       class="fil0"
       style="stroke:#000000;stroke-width:35.9953;stroke-miterlimit:4;stroke-dasharray:none;stroke-opacity:1" /></g></svg>
