<?xml version="1.0" encoding="UTF-8" standalone="no"?>
<svg
   xmlns:dc="http://purl.org/dc/elements/1.1/"
   xmlns:cc="http://creativecommons.org/ns#"
   xmlns:rdf="http://www.w3.org/1999/02/22-rdf-syntax-ns#"
   xmlns:svg="http://www.w3.org/2000/svg"
   xmlns="http://www.w3.org/2000/svg"
   xmlns:sodipodi="http://sodipodi.sourceforge.net/DTD/sodipodi-0.dtd"
   xmlns:inkscape="http://www.inkscape.org/namespaces/inkscape"
   inkscape:version="1.0.1 (3bc2e813f5, 2020-09-07)"
   inkscape:export-ydpi="600"
   inkscape:export-xdpi="600"
   inkscape:export-filename="C:\Users\teodo\Pulpit\Inne\Kalendarzyk 2021\card_projects\icons\zodiac\11_skorpion.png"
   version="1.1"
   sodipodi:docname="11_skorpion.svg"
   sodipodi:version="0.34"
   id="svg650"
   viewBox="0 0 8590.8256 12076.684"
   style="fill-rule:evenodd;image-rendering:optimizeQuality;shape-rendering:geometricPrecision;text-rendering:geometricPrecision"
   height="194.18547pt"
   width="177.67673pt"
   xml:space="preserve"><metadata
     id="metadata8"><rdf:RDF><cc:Work
         rdf:about=""><dc:format>image/svg+xml</dc:format><dc:type
           rdf:resource="http://purl.org/dc/dcmitype/StillImage" /><dc:title></dc:title></cc:Work></rdf:RDF></metadata><sodipodi:namedview
     inkscape:current-layer="svg650"
     inkscape:window-maximized="1"
     inkscape:window-y="-9"
     inkscape:window-x="-9"
     inkscape:window-height="1361"
     inkscape:window-width="2560"
     inkscape:cy="128.09481"
     inkscape:cx="119.13438"
     inkscape:zoom="4.619774"
     showgrid="false"
     inkscape:document-rotation="0"
     id="base" /><defs
     id="defs651"><style
       id="style652"
       type="text/css"><![CDATA[
    .fil0 {fill:#000000}
   ]]></style></defs><g
     transform="matrix(4.472138,0,0,4.481411,-13108.104,-19782.104)"
     id="Layer 1"
     style="stroke:#000000;stroke-width:52.0951;stroke-miterlimit:4;stroke-dasharray:none;stroke-opacity:1"><path
       id="path654"
       d="M 2889,6489 V 5057 c 0,-238 -56,-431 -169,-575 h 216 c 76,116 127,247 154,395 64,-158 143,-289 236,-395 l 194,-39 c 91,106 148,258 173,455 49,-141 130,-280 242,-416 l 198,-39 c 108,146 162,319 162,519 v 1250 c 0,131 5,220 13,266 10,47 30,87 62,122 57,60 153,90 287,90 h 123 v -201 l 318,287 -318,276 v -195 h -184 c -176,0 -303,-46 -382,-138 -80,-93 -120,-240 -120,-443 V 5067 c 0,-204 -29,-350 -88,-439 -150,173 -255,389 -313,649 V 6489 H 3492 V 5138 c 0,-243 -29,-413 -88,-510 -144,162 -248,364 -314,604 v 1257 z"
       class="fil0"
       style="stroke:#000000;stroke-width:52.0951;stroke-miterlimit:4;stroke-dasharray:none;stroke-opacity:1" /></g></svg>
